<svg width="16" height="16" viewBox="0 0 16 16" fill="none" xmlns="http://www.w3.org/2000/svg">
<path d="M2.5 5H3.5V11.25H2.5V5ZM4.5 5H5.5V11.25H4.5V5ZM6.5 5H7.5V11.25H6.5V5ZM8.5 5H9.5V11.25H8.5V5ZM10.5 5H11.5V11.25H10.5V5Z" fill="#000000"/>
<path d="M13.4999 5.50001V3.73719C13.498 3.54006 13.418 3.35173 13.2774 3.21354C13.1368 3.07534 12.9471 2.99855 12.7499 3.00001H1.24951C1.05237 2.99855 0.862698 3.07534 0.722099 3.21354C0.581499 3.35173 0.501451 3.54006 0.499512 3.73719V12.5128C0.501451 12.71 0.581499 12.8983 0.722099 13.0365C0.862698 13.1747 1.05237 13.2515 1.24951 13.25H12.7499C12.9471 13.2515 13.1368 13.1747 13.2774 13.0365C13.418 12.8983 13.498 12.71 13.4999 12.5128V10.75H15.4999V5.50001H13.4999ZM14.4999 9.75001H12.4999V12.25H1.49951V4.00001H12.4999V6.50001H14.4999V9.75001Z" fill="#000000"/>
</svg>
