<?xml version="1.0" encoding="UTF-8" standalone="no"?>
<svg
   xmlns:dc="http://purl.org/dc/elements/1.1/"
   xmlns:cc="http://creativecommons.org/ns#"
   xmlns:rdf="http://www.w3.org/1999/02/22-rdf-syntax-ns#"
   xmlns:svg="http://www.w3.org/2000/svg"
   xmlns="http://www.w3.org/2000/svg"
   xmlns:sodipodi="http://sodipodi.sourceforge.net/DTD/sodipodi-0.dtd"
   xmlns:inkscape="http://www.inkscape.org/namespaces/inkscape"
   version="1.1"
   id="Capa_1"
   x="0px"
   y="0px"
   viewBox="0 0 15.999999 15.999999"
   xml:space="preserve"
   sodipodi:docname="jerrycan-svgrepo-com.svg"
   width="16"
   height="15.999999"
   inkscape:version="1.0.2 (e86c870879, 2021-01-15)"><metadata
   id="metadata43"><rdf:RDF><cc:Work
       rdf:about=""><dc:format>image/svg+xml</dc:format><dc:type
         rdf:resource="http://purl.org/dc/dcmitype/StillImage" /><dc:title></dc:title></cc:Work></rdf:RDF></metadata><defs
   id="defs41" /><sodipodi:namedview
   pagecolor="#ffffff"
   bordercolor="#666666"
   borderopacity="1"
   objecttolerance="10"
   gridtolerance="10"
   guidetolerance="10"
   inkscape:pageopacity="0"
   inkscape:pageshadow="2"
   inkscape:window-width="1848"
   inkscape:window-height="1136"
   id="namedview39"
   showgrid="false"
   fit-margin-top="0"
   fit-margin-left="0"
   fit-margin-right="0"
   fit-margin-bottom="0"
   inkscape:zoom="9.4160697"
   inkscape:cx="18.842904"
   inkscape:cy="-4.7177326"
   inkscape:window-x="1992"
   inkscape:window-y="163"
   inkscape:window-maximized="1"
   inkscape:current-layer="Capa_1" />
<g
   id="g6"
   transform="matrix(0.036249,0,0,0.036235,-0.00308594,-1.1837159e-8)">
	<path
   d="m 333.764,139.87 c 3.022,-3.946 2.274,-9.595 -1.672,-12.618 -3.945,-3.022 -9.595,-2.273 -12.617,1.672 l -42.693,55.735 h -73.67 l -42.693,-55.735 c -3.021,-3.946 -8.671,-4.694 -12.617,-1.672 -3.946,3.022 -4.694,8.672 -1.672,12.618 l 43.539,56.84 v 101.68 l -43.539,56.84 c -3.022,3.946 -2.274,9.595 1.672,12.618 1.633,1.251 3.557,1.856 5.466,1.856 2.705,0 5.38,-1.215 7.151,-3.528 l 42.694,-55.736 h 73.668 l 42.694,55.736 c 1.771,2.313 4.446,3.528 7.151,3.528 1.909,0 3.833,-0.605 5.466,-1.856 3.946,-3.022 4.694,-8.672 1.672,-12.618 l -43.54,-56.841 V 196.711 Z m -61.54,152.569 H 207.67 v -89.78 h 64.555 v 89.78 z"
   id="path2" />
	<path
   d="M 354.891,0 H 202.215 c -22.359,0 -40.551,18.191 -40.551,40.55 v 12.986 h -13.17 c -3.343,0 -6.618,0.292 -9.812,0.827 l -20.716,-20.717 5.567,-5.567 c 3.515,-3.515 3.515,-9.213 0,-12.728 -3.516,-3.514 -9.213,-3.515 -12.729,0 L 82.172,43.984 65.47,60.686 c 0,0 -0.001,10e-4 -0.001,10e-4 l -11.93,11.93 c -3.515,3.515 -3.515,9.213 0,12.728 1.758,1.758 4.061,2.636 6.364,2.636 2.303,0 4.606,-0.879 6.364,-2.636 l 5.566,-5.566 19.074,19.071 c -1.084,4.475 -1.673,9.142 -1.673,13.946 v 269.506 c 0,32.676 26.584,59.26 59.261,59.26 h 182.903 c 32.677,0 59.261,-26.584 59.261,-59.26 V 35.768 C 390.659,16.045 374.614,0 354.891,0 Z M 179.665,40.55 C 179.665,28.116 189.781,18 202.216,18 h 77.479 c -4.283,3.662 -8.177,7.821 -11.571,12.436 v 0 C 257.488,44.9 240.421,53.535 222.468,53.535 h -42.803 z m -95.102,26.5 20.676,-20.676 14.583,14.583 c -8.66,4.809 -15.987,11.726 -21.301,20.05 z m 288.096,315.252 c 0,22.751 -18.51,41.26 -41.261,41.26 H 148.495 c -22.751,0 -41.261,-18.51 -41.261,-41.26 V 112.796 c 0,-22.751 18.51,-41.26 41.261,-41.26 h 73.973 c 23.655,0 46.145,-11.378 60.158,-30.437 C 293.261,26.635 310.329,18 328.282,18 h 26.609 c 9.797,0 17.768,7.971 17.768,17.768 z"
   id="path4" />
</g>
<g
   id="g8"
   transform="translate(-50.902751,-425.55582)">
</g>
<g
   id="g10"
   transform="translate(-50.902751,-425.55582)">
</g>
<g
   id="g12"
   transform="translate(-50.902751,-425.55582)">
</g>
<g
   id="g14"
   transform="translate(-50.902751,-425.55582)">
</g>
<g
   id="g16"
   transform="translate(-50.902751,-425.55582)">
</g>
<g
   id="g18"
   transform="translate(-50.902751,-425.55582)">
</g>
<g
   id="g20"
   transform="translate(-50.902751,-425.55582)">
</g>
<g
   id="g22"
   transform="translate(-50.902751,-425.55582)">
</g>
<g
   id="g24"
   transform="translate(-50.902751,-425.55582)">
</g>
<g
   id="g26"
   transform="translate(-50.902751,-425.55582)">
</g>
<g
   id="g28"
   transform="translate(-50.902751,-425.55582)">
</g>
<g
   id="g30"
   transform="translate(-50.902751,-425.55582)">
</g>
<g
   id="g32"
   transform="translate(-50.902751,-425.55582)">
</g>
<g
   id="g34"
   transform="translate(-50.902751,-425.55582)">
</g>
<g
   id="g36"
   transform="translate(-50.902751,-425.55582)">
</g>
</svg>
