<svg width="18" height="18" viewBox="0 0 18 18" fill="none" xmlns="http://www.w3.org/2000/svg">
<path d="M16.1145 13.6047H14.6733C14.5749 13.6047 14.4826 13.6486 14.4211 13.7261C14.2776 13.904 14.1238 14.0756 13.9619 14.2388C13.2995 14.9158 12.5148 15.4553 11.6514 15.8274C10.7568 16.2132 9.79531 16.4111 8.82423 16.4093C7.84222 16.4093 6.89095 16.2126 5.9971 15.8274C5.13364 15.4553 4.34901 14.9158 3.6866 14.2388C3.023 13.5642 2.49386 12.7645 2.12849 11.8842C1.74922 10.9716 1.55856 10.0026 1.55856 9.00002C1.55856 7.99746 1.75127 7.02839 2.12849 6.11584C2.49342 5.23467 3.01825 4.44142 3.6866 3.76119C4.35494 3.08096 5.13194 2.54514 5.9971 2.17259C6.89095 1.78747 7.84222 1.59073 8.82423 1.59073C9.80624 1.59073 10.7575 1.78538 11.6514 2.17259C12.5165 2.54514 13.2935 3.08096 13.9619 3.76119C14.1238 3.92654 14.2755 4.09816 14.4211 4.27398C14.4826 4.35142 14.5769 4.39537 14.6733 4.39537H16.1145C16.2437 4.39537 16.3236 4.24886 16.2519 4.13793C14.6794 1.64305 11.9281 -0.00834039 8.80168 3.16855e-05C3.88956 0.0125898 -0.0487471 4.08351 0.000456061 9.09211C0.0496593 14.0212 3.98182 18 8.82423 18C11.9425 18 14.6815 16.3507 16.2519 13.8621C16.3216 13.7512 16.2437 13.6047 16.1145 13.6047ZM17.9371 8.86816L15.0279 6.52397C14.9193 6.43607 14.7614 6.5156 14.7614 6.65583V8.24653H8.324C8.23379 8.24653 8.15999 8.32188 8.15999 8.41397V9.58606C8.15999 9.67815 8.23379 9.7535 8.324 9.7535H14.7614V11.3442C14.7614 11.4844 14.9213 11.564 15.0279 11.4761L17.9371 9.13188C17.9567 9.11621 17.9725 9.0962 17.9834 9.07335C17.9943 9.05051 18 9.02543 18 9.00002C18 8.9746 17.9943 8.94952 17.9834 8.92668C17.9725 8.90383 17.9567 8.88382 17.9371 8.86816Z" fill="white"/>
</svg>
