<svg width="16" height="16" viewBox="0 0 16 16" fill="none" xmlns="http://www.w3.org/2000/svg">
<path d="M1.33331 4.00001V0.666672H4.66665V2.00001H2.66665V4.00001H1.33331ZM13.3333 4.00001V2.00001H11.3333V0.666672H14.6666V4.00001H13.3333ZM1.33331 15.3333V12H2.66665V14H4.66665V15.3333H1.33331ZM11.3333 15.3333V14H13.3333V12H14.6666V15.3333H11.3333ZM4.66665 12H11.3333V4.00001H4.66665V12ZM3.33331 13.3333V2.66667H12.6666V13.3333H3.33331ZM5.99998 6.66667H9.99998V5.33334H5.99998V6.66667ZM5.99998 8.66667H9.99998V7.33334H5.99998V8.66667ZM5.99998 10.6667H9.99998V9.33334H5.99998V10.6667ZM4.66665 12V4.00001V12Z" fill="#000000"/>
</svg>
