<svg width="27" height="29" viewBox="0 0 27 29" fill="none" xmlns="http://www.w3.org/2000/svg">
<path d="M3.85216 19.2386C3.52869 17.9576 3.36602 16.6475 3.36726 15.3333C3.36726 8.54931 7.6329 2.75198 13.653 0.423981C19.6731 2.75198 23.9387 8.54931 23.9387 15.3333C23.9387 16.68 23.7712 17.988 23.4538 19.2386L26.422 21.6333C26.5497 21.7364 26.6338 21.8767 26.6599 22.03C26.6859 22.1834 26.6522 22.3401 26.5645 22.4733L22.9527 27.9346C22.8952 28.0214 22.8167 28.0952 22.7231 28.1503C22.6295 28.2054 22.5233 28.2405 22.4126 28.2528C22.3018 28.2652 22.1894 28.2545 22.0839 28.2215C21.9784 28.1886 21.8826 28.1342 21.8037 28.0626L18.4917 25.0573C18.2162 24.8072 17.8425 24.6667 17.4528 24.6666H9.85314C9.46347 24.6667 9.08978 24.8072 8.81428 25.0573L5.50229 28.0626C5.42337 28.1342 5.32752 28.1886 5.22201 28.2215C5.11651 28.2545 5.00412 28.2652 4.89336 28.2528C4.78261 28.2405 4.67641 28.2054 4.58283 28.1503C4.48924 28.0952 4.41072 28.0214 4.35322 27.9346L0.741468 22.4746C0.653416 22.3413 0.619469 22.1843 0.645494 22.0307C0.67152 21.877 0.755883 21.7365 0.883999 21.6333L3.85216 19.2386ZM13.653 15.3333C14.4324 15.3333 15.1799 15.0524 15.731 14.5523C16.2821 14.0522 16.5918 13.3739 16.5918 12.6666C16.5918 11.9594 16.2821 11.2811 15.731 10.781C15.1799 10.2809 14.4324 9.99998 13.653 9.99998C12.8736 9.99998 12.1261 10.2809 11.575 10.781C11.0238 11.2811 10.7142 11.9594 10.7142 12.6666C10.7142 13.3739 11.0238 14.0522 11.575 14.5523C12.1261 15.0524 12.8736 15.3333 13.653 15.3333Z" fill="#FFFFFF"/>
</svg>
