<svg width="36" height="32" viewBox="0 0 36 32" fill="none" xmlns="http://www.w3.org/2000/svg">
<path d="M29.6938 10.6667C29.6938 11.403 29.0968 12 28.3605 12H22.3469V27.8639C22.3469 28.6755 21.689 29.3333 20.8775 29.3333C20.066 29.3333 19.4081 28.6755 19.4081 27.8639V22.8027C19.4081 21.9912 18.7502 21.3333 17.9387 21.3333C17.1272 21.3333 16.4693 21.9912 16.4693 22.8027V27.8639C16.4693 28.6755 15.8114 29.3333 14.9999 29.3333C14.1884 29.3333 13.5305 28.6755 13.5305 27.8639V12H7.51693C6.78055 12 6.18359 11.403 6.18359 10.6667C6.18359 9.93028 6.78055 9.33332 7.51693 9.33332H28.3605C29.0968 9.33332 29.6938 9.93028 29.6938 10.6667ZM17.9387 2.66666C18.7181 2.66666 19.4656 2.94761 20.0167 3.4477C20.5678 3.9478 20.8775 4.62608 20.8775 5.33332C20.8775 6.04057 20.5678 6.71884 20.0167 7.21894C19.4656 7.71904 18.7181 7.99999 17.9387 7.99999C17.1593 7.99999 16.4118 7.71904 15.8607 7.21894C15.3095 6.71884 14.9999 6.04057 14.9999 5.33332C14.9999 3.85332 16.3077 2.66666 17.9387 2.66666Z" fill="white"/>
</svg>
