<svg width="18" height="19" viewBox="0 0 18 19" fill="none" xmlns="http://www.w3.org/2000/svg">
<path d="M17.2938 15.4626C16.8423 14.399 16.1871 13.4329 15.3646 12.6181C14.5446 11.8009 13.5733 11.1494 12.5042 10.6996C12.4947 10.6948 12.4851 10.6924 12.4755 10.6876C13.9667 9.6165 14.9361 7.87173 14.9361 5.9032C14.9361 2.64216 12.2792 0 9 0C5.72077 0 3.06387 2.64216 3.06387 5.9032C3.06387 7.87173 4.03328 9.6165 5.52449 10.69C5.51492 10.6948 5.50534 10.6972 5.49577 10.7019C4.42343 11.1518 3.46121 11.7969 2.63541 12.6205C1.81371 13.4359 1.15857 14.4018 0.706172 15.465C0.261734 16.5058 0.0220377 17.6216 5.98544e-05 18.7522C-0.00057901 18.7776 0.00390188 18.8029 0.0132386 18.8265C0.0225753 18.8502 0.036579 18.8717 0.0544243 18.8899C0.0722696 18.9081 0.0935956 18.9226 0.117146 18.9324C0.140696 18.9423 0.165993 18.9474 0.191548 18.9474H1.62771C1.73303 18.9474 1.8168 18.8641 1.8192 18.7617C1.86707 16.9241 2.60908 15.2031 3.92078 13.8987C5.27795 12.5491 7.08033 11.8064 9 11.8064C10.9197 11.8064 12.722 12.5491 14.0792 13.8987C15.3909 15.2031 16.1329 16.9241 16.1808 18.7617C16.1832 18.8664 16.267 18.9474 16.3723 18.9474H17.8085C17.834 18.9474 17.8593 18.9423 17.8829 18.9324C17.9064 18.9226 17.9277 18.9081 17.9456 18.8899C17.9634 18.8717 17.9774 18.8502 17.9868 18.8265C17.9961 18.8029 18.0006 18.7776 17.9999 18.7522C17.976 17.6144 17.739 16.5075 17.2938 15.4626ZM9 9.99736C7.90134 9.99736 6.8673 9.57128 6.08938 8.79767C5.31146 8.02407 4.88301 6.99577 4.88301 5.9032C4.88301 4.81063 5.31146 3.78233 6.08938 3.00873C6.8673 2.23512 7.90134 1.80905 9 1.80905C10.0987 1.80905 11.1327 2.23512 11.9106 3.00873C12.6885 3.78233 13.117 4.81063 13.117 5.9032C13.117 6.99577 12.6885 8.02407 11.9106 8.79767C11.1327 9.57128 10.0987 9.99736 9 9.99736Z" fill="white"/>
</svg>
