<?xml version="1.0" encoding="UTF-8" standalone="no"?>
<svg
   xmlns:dc="http://purl.org/dc/elements/1.1/"
   xmlns:cc="http://creativecommons.org/ns#"
   xmlns:rdf="http://www.w3.org/1999/02/22-rdf-syntax-ns#"
   xmlns:svg="http://www.w3.org/2000/svg"
   xmlns="http://www.w3.org/2000/svg"
   xmlns:sodipodi="http://sodipodi.sourceforge.net/DTD/sodipodi-0.dtd"
   xmlns:inkscape="http://www.inkscape.org/namespaces/inkscape"
   class="svg-icon"
   style="overflow:hidden;fill:currentColor"
   viewBox="0 0 16 16"
   version="1.1"
   id="svg58"
   sodipodi:docname="valve-1(1).svg"
   width="16"
   height="16"
   inkscape:version="1.0.2 (e86c870879, 2021-01-15)">
  <metadata
     id="metadata64">
    <rdf:RDF>
      <cc:Work
         rdf:about="">
        <dc:format>image/svg+xml</dc:format>
        <dc:type
           rdf:resource="http://purl.org/dc/dcmitype/StillImage" />
        <dc:title></dc:title>
      </cc:Work>
    </rdf:RDF>
  </metadata>
  <defs
     id="defs62" />
  <sodipodi:namedview
     pagecolor="#ffffff"
     bordercolor="#666666"
     borderopacity="1"
     objecttolerance="10"
     gridtolerance="10"
     guidetolerance="10"
     inkscape:pageopacity="0"
     inkscape:pageshadow="2"
     inkscape:window-width="1920"
     inkscape:window-height="1043"
     id="namedview60"
     showgrid="false"
     fit-margin-top="0"
     fit-margin-left="0"
     fit-margin-right="0"
     fit-margin-bottom="0"
     inkscape:zoom="19.953669"
     inkscape:cx="15.188876"
     inkscape:cy="10.746376"
     inkscape:window-x="0"
     inkscape:window-y="518"
     inkscape:window-maximized="1"
     inkscape:current-layer="svg58" />
  <path
     d="m 15.386353,6.180717 c 0.366666,0 0.666666,0.29985 0.666666,0.66632 v 4.66425 c 0,0.36647 -0.3,0.66632 -0.666666,0.66632 -0.366667,0 -0.666667,-0.29985 -0.666667,-0.66632 h -2.633333 c -0.833334,1.43259 -2.3666677,2.33212 -4.0333337,2.33212 -1.666667,0 -3.2000004,-0.89953 -4.0333338,-2.33212 H 1.3863523 c 0,0.36647 -0.3000001,0.66632 -0.66666668,0.66632 -0.36666666,0 -0.66666668,-0.29985 -0.66666668,-0.66632 v -4.66425 c 0,-0.36647 0.30000001,-0.66632 0.66666668,-0.66632 0.36666668,0 0.66666668,0.29985 0.66666668,0.66632 h 2.6333332 c 0.7000001,-1.23269 1.9666668,-2.06559 3.3666668,-2.2988 v -1.0328 H 5.3863522 c -0.3666667,0 -0.6666666,-0.29984 -0.6666666,-0.66632 0,-0.36648 0.2999999,-0.66632 0.6666666,-0.66632 h 5.3333338 c 0.366666,0 0.666666,0.29984 0.666666,0.66632 0,0.36648 -0.3,0.66632 -0.666666,0.66632 H 8.7196858 v 1.0328 c 1.3999992,0.19989 2.6666662,1.03279 3.3666672,2.2988 h 2.633333 c 0,-0.36647 0.3,-0.66632 0.666667,-0.66632 z m -0.666667,3.99793 v -1.99896 h -3.033334 c -0.266666,0 -0.5,-0.16658 -0.6,-0.3998 -0.533333,-1.16606 -1.7333334,-1.93233 -3.0333327,-1.93233 -1.3000003,0 -2.5000004,0.76627 -3.0333338,1.93233 -0.1,0.23322 -0.3333332,0.3998 -0.5999999,0.3998 H 1.3863523 v 1.99896 h 3.0333333 c 0.2666667,0 0.5,0.16658 0.5999999,0.39979 0.5333334,1.16606 1.7333335,1.93233 3.0333338,1.93233 1.2999993,0 2.4999997,-0.76627 3.0333327,-1.93233 0.100002,-0.23321 0.333334,-0.39979 0.6,-0.39979 z"
     fill="#2f3cf4"
     id="path56"
     style="stroke-width:0.015621;fill:#000000" />
</svg>
