<svg width="33" height="32" viewBox="0 0 33 32" fill="none" xmlns="http://www.w3.org/2000/svg">
<path d="M16.1836 23C15.8869 23 15.5969 23.088 15.3502 23.2528C15.1036 23.4176 14.9113 23.6519 14.7978 23.926C14.6842 24.2001 14.6545 24.5017 14.7124 24.7926C14.7703 25.0836 14.9132 25.3509 15.1229 25.5607C15.3327 25.7704 15.6 25.9133 15.891 25.9712C16.1819 26.0291 16.4835 25.9993 16.7576 25.8858C17.0317 25.7723 17.266 25.58 17.4308 25.3334C17.5956 25.0867 17.6836 24.7967 17.6836 24.5C17.6836 24.1022 17.5256 23.7206 17.2443 23.4393C16.9629 23.158 16.5814 23 16.1836 23ZM15.1836 12H17.1836V21H15.1836V12Z" fill="white"/>
<path d="M29.1836 30H3.18356C3.01183 29.9999 2.843 29.9556 2.69336 29.8714C2.54371 29.7871 2.41829 29.6658 2.32916 29.519C2.24004 29.3722 2.19022 29.2049 2.18451 29.0332C2.1788 28.8616 2.21739 28.6914 2.29656 28.539L15.2966 3.53899C15.381 3.37673 15.5084 3.24075 15.6648 3.14584C15.8212 3.05094 16.0006 3.00076 16.1836 3.00076C16.3665 3.00076 16.5459 3.05094 16.7023 3.14584C16.8587 3.24075 16.9861 3.37673 17.0706 3.53899L30.0706 28.539C30.1497 28.6914 30.1883 28.8616 30.1826 29.0332C30.1769 29.2049 30.1271 29.3722 30.038 29.519C29.9488 29.6658 29.8234 29.7871 29.6738 29.8714C29.5241 29.9556 29.3553 29.9999 29.1836 30ZM4.83356 28H27.5336L27.5346 27.997L16.1856 6.16999H16.1816L4.83156 27.997L4.83356 28Z" fill="white"/>
</svg>
