<?xml version="1.0" encoding="UTF-8" standalone="no"?> <svg id="Layer_1" data-name="Layer 1" xmlns="http://www.w3.org/2000/svg" viewBox="0 0 128 128"><defs><style>.cls-1{fill:#2d3e50;}</style></defs><title>b</title><path class="cls-1" d="M123.86411,28.16525a1.04218,1.04218,0,0,0-1.73839-.45583L105.15445,44.68069a5.90315,5.90315,0,0,1-8.34831,0L83.27852,31.15307a5.90315,5.90315,0,0,1,0-8.34831L100.24979,5.83349A1.04218,1.04218,0,0,0,99.794,4.09511,35.20619,35.20619,0,0,0,57.089,50.2995L7.1183,100.27024a14.7559,14.7559,0,0,0-.00218,20.93008,14.56271,14.56271,0,0,0,20.39039-.17712L77.65958,70.87013a35.2062,35.2062,0,0,0,46.20452-42.70488Z"/></svg>